<?xml version="1.0" encoding="UTF-8" standalone="no"?>
<!-- Created with Inkscape (http://www.inkscape.org/) -->

<svg
   xmlns:dc="http://purl.org/dc/elements/1.1/"
   xmlns:cc="http://creativecommons.org/ns#"
   xmlns:rdf="http://www.w3.org/1999/02/22-rdf-syntax-ns#"
   xmlns:svg="http://www.w3.org/2000/svg"
   xmlns="http://www.w3.org/2000/svg"
   xmlns:sodipodi="http://sodipodi.sourceforge.net/DTD/sodipodi-0.dtd"
   xmlns:inkscape="http://www.inkscape.org/namespaces/inkscape"
   width="1920"
   height="1080"
   id="svg2"
   version="1.1"
   inkscape:version="0.48.5 r10040"
   sodipodi:docname="New document 1">
  <defs
     id="defs4" />
  <sodipodi:namedview
     id="base"
     pagecolor="#ffffff"
     bordercolor="#666666"
     borderopacity="1.0"
     inkscape:pageopacity="0.0"
     inkscape:pageshadow="2"
     inkscape:zoom="0.7"
     inkscape:cx="780.80645"
     inkscape:cy="615.59519"
     inkscape:document-units="px"
     inkscape:current-layer="layer1"
     showgrid="false"
     inkscape:window-width="2491"
     inkscape:window-height="1183"
     inkscape:window-x="52"
     inkscape:window-y="1492"
     inkscape:window-maximized="0" />
  <metadata
     id="metadata7">
    <rdf:RDF>
      <cc:Work
         rdf:about="">
        <dc:format>image/svg+xml</dc:format>
        <dc:type
           rdf:resource="http://purl.org/dc/dcmitype/StillImage" />
        <dc:title></dc:title>
      </cc:Work>
    </rdf:RDF>
  </metadata>
  <g
     inkscape:label="Layer 1"
     inkscape:groupmode="layer"
     id="layer1"
     transform="translate(0,27.637817)">
    <rect
       style="fill:#ffffff;fill-opacity:1;fill-rule:nonzero;stroke:none"
       id="rect5214"
       width="2000"
       height="1100"
       x="-40"
       y="-37.637817" />
    <g
       id="g5099"
       transform="translate(-71.284387,44.285721)">
      <rect
         transform="matrix(1,0,-0.25881905,0.96592583,0,0)"
         style="opacity:0.2;fill:#393939;fill-opacity:1;fill-rule:nonzero;stroke:none"
         id="rect3779"
         width="5"
         height="1205.3573"
         x="2339.7065"
         y="-118.09024" />
      <rect
         transform="matrix(1,0,-0.25881905,0.96592583,0,0)"
         style="opacity:0.2;fill:#393939;fill-opacity:1;fill-rule:nonzero;stroke:none"
         id="rect3781"
         width="5"
         height="1205.3573"
         x="1789.295"
         y="-118.09024" />
      <rect
         transform="matrix(1,0,-0.25881905,0.96592583,0,0)"
         y="-118.09024"
         x="1831.6344"
         height="1205.3573"
         width="5"
         id="rect3791"
         style="opacity:0.2;fill:#393939;fill-opacity:1;fill-rule:nonzero;stroke:none" />
      <rect
         transform="matrix(1,0,-0.25881905,0.96592583,0,0)"
         style="opacity:0.2;fill:#393939;fill-opacity:1;fill-rule:nonzero;stroke:none"
         id="rect3809"
         width="5"
         height="1205.3573"
         x="1810.4647"
         y="-118.09024" />
      <rect
         transform="matrix(1,0,-0.25881905,0.96592583,0,0)"
         style="opacity:0.2;fill:#393939;fill-opacity:1;fill-rule:nonzero;stroke:none"
         id="rect3869"
         width="5"
         height="1205.3573"
         x="1492.9197"
         y="-118.09024" />
      <rect
         transform="matrix(1,0,-0.25881905,0.96592583,0,0)"
         y="-118.09024"
         x="1154.2051"
         height="1205.3573"
         width="5"
         id="rect3871"
         style="opacity:0.2;fill:#393939;fill-opacity:1;fill-rule:nonzero;stroke:none" />
      <rect
         transform="matrix(1,0,-0.25881905,0.96592583,0,0)"
         style="opacity:0.2;fill:#393939;fill-opacity:1;fill-rule:nonzero;stroke:none"
         id="rect3873"
         width="5"
         height="1205.3573"
         x="1133.0354"
         y="-118.09024" />
      <rect
         transform="matrix(1,0,-0.25881905,0.96592583,0,0)"
         y="-118.09024"
         x="1111.8658"
         height="1205.3573"
         width="5"
         id="rect3875"
         style="opacity:0.2;fill:#393939;fill-opacity:1;fill-rule:nonzero;stroke:none" />
      <rect
         transform="matrix(1,0,-0.25881905,0.96592583,0,0)"
         style="opacity:0.2;fill:#393939;fill-opacity:1;fill-rule:nonzero;stroke:none"
         id="rect3877"
         width="5"
         height="1205.3573"
         x="1090.6962"
         y="-118.09024" />
      <rect
         transform="matrix(1,0,-0.25881905,0.96592583,0,0)"
         y="-118.09024"
         x="1069.5265"
         height="1205.3573"
         width="5"
         id="rect3879"
         style="opacity:0.2;fill:#393939;fill-opacity:1;fill-rule:nonzero;stroke:none" />
      <rect
         transform="matrix(1,0,-0.25881905,0.96592583,0,0)"
         style="opacity:0.2;fill:#393939;fill-opacity:1;fill-rule:nonzero;stroke:none"
         id="rect3881"
         width="5"
         height="1205.3573"
         x="1027.1871"
         y="-118.09024" />
      <rect
         transform="matrix(1,0,-0.25881905,0.96592583,0,0)"
         y="-118.09024"
         x="984.84772"
         height="1205.3573"
         width="5"
         id="rect3883"
         style="opacity:0.2;fill:#393939;fill-opacity:1;fill-rule:nonzero;stroke:none" />
      <rect
         transform="matrix(1,0,-0.25881905,0.96592583,0,0)"
         style="opacity:0.2;fill:#393939;fill-opacity:1;fill-rule:nonzero;stroke:none"
         id="rect3885"
         width="5"
         height="1205.3573"
         x="942.50842"
         y="-118.09024" />
      <rect
         transform="matrix(1,0,-0.25881905,0.96592583,0,0)"
         y="-118.09024"
         x="900.16907"
         height="1205.3573"
         width="5"
         id="rect3887"
         style="opacity:0.2;fill:#393939;fill-opacity:1;fill-rule:nonzero;stroke:none" />
      <rect
         transform="matrix(1,0,-0.25881905,0.96592583,0,0)"
         style="opacity:0.2;fill:#393939;fill-opacity:1;fill-rule:nonzero;stroke:none"
         id="rect3889"
         width="5"
         height="1205.3573"
         x="857.82971"
         y="-118.09024" />
      <rect
         transform="matrix(1,0,-0.25881905,0.96592583,0,0)"
         y="-118.09024"
         x="815.49042"
         height="1205.3573"
         width="5"
         id="rect3891"
         style="opacity:0.2;fill:#393939;fill-opacity:1;fill-rule:nonzero;stroke:none" />
      <rect
         transform="matrix(1,0,-0.25881905,0.96592583,0,0)"
         style="opacity:0.2;fill:#393939;fill-opacity:1;fill-rule:nonzero;stroke:none"
         id="rect3893"
         width="5"
         height="1205.3573"
         x="773.15106"
         y="-118.09024" />
      <rect
         transform="matrix(1,0,-0.25881905,0.96592583,0,0)"
         y="-118.09024"
         x="730.81171"
         height="1205.3573"
         width="5"
         id="rect3895"
         style="opacity:0.2;fill:#393939;fill-opacity:1;fill-rule:nonzero;stroke:none" />
      <rect
         transform="matrix(1,0,-0.25881905,0.96592583,0,0)"
         style="opacity:0.2;fill:#393939;fill-opacity:1;fill-rule:nonzero;stroke:none"
         id="rect3897"
         width="5"
         height="1205.3573"
         x="688.47235"
         y="-118.09024" />
      <rect
         transform="matrix(1,0,-0.25881905,0.96592583,0,0)"
         y="-118.09024"
         x="11.042995"
         height="1205.3573"
         width="5"
         id="rect3899"
         style="opacity:0.2;fill:#393939;fill-opacity:1;fill-rule:nonzero;stroke:none" />
      <rect
         transform="matrix(1,0,-0.25881905,0.96592583,0,0)"
         style="opacity:0.2;fill:#393939;fill-opacity:1;fill-rule:nonzero;stroke:none"
         id="rect3901"
         width="5"
         height="1205.3573"
         x="603.7937"
         y="-118.09024" />
      <rect
         transform="matrix(1,0,-0.25881905,0.96592583,0,0)"
         y="-118.09024"
         x="561.45435"
         height="1205.3573"
         width="5"
         id="rect3903"
         style="opacity:0.2;fill:#393939;fill-opacity:1;fill-rule:nonzero;stroke:none" />
      <rect
         transform="matrix(1,0,-0.25881905,0.96592583,0,0)"
         style="opacity:0.2;fill:#393939;fill-opacity:1;fill-rule:nonzero;stroke:none"
         id="rect3905"
         width="5"
         height="1205.3573"
         x="519.11505"
         y="-118.09024" />
      <rect
         transform="matrix(1,0,-0.25881905,0.96592583,0,0)"
         y="-118.09024"
         x="476.7757"
         height="1205.3573"
         width="5"
         id="rect3907"
         style="opacity:0.2;fill:#393939;fill-opacity:1;fill-rule:nonzero;stroke:none" />
      <rect
         transform="matrix(1,0,-0.25881905,0.96592583,0,0)"
         style="opacity:0.2;fill:#393939;fill-opacity:1;fill-rule:nonzero;stroke:none"
         id="rect3909"
         width="5"
         height="1205.3573"
         x="434.43637"
         y="-118.09024" />
      <rect
         transform="matrix(1,0,-0.25881905,0.96592583,0,0)"
         y="-118.09024"
         x="392.09702"
         height="1205.3573"
         width="5"
         id="rect3911"
         style="opacity:0.2;fill:#393939;fill-opacity:1;fill-rule:nonzero;stroke:none" />
      <rect
         transform="matrix(1,0,-0.25881905,0.96592583,0,0)"
         style="opacity:0.2;fill:#393939;fill-opacity:1;fill-rule:nonzero;stroke:none"
         id="rect3913"
         width="5"
         height="1205.3573"
         x="349.75769"
         y="-118.09024" />
      <rect
         transform="matrix(1,0,-0.25881905,0.96592583,0,0)"
         y="-118.09024"
         x="307.41837"
         height="1205.3573"
         width="5"
         id="rect3915"
         style="opacity:0.2;fill:#393939;fill-opacity:1;fill-rule:nonzero;stroke:none" />
      <rect
         transform="matrix(1,0,-0.25881905,0.96592583,0,0)"
         style="opacity:0.2;fill:#393939;fill-opacity:1;fill-rule:nonzero;stroke:none"
         id="rect3917"
         width="5"
         height="1205.3573"
         x="265.07901"
         y="-118.09024" />
      <rect
         transform="matrix(1,0,-0.25881905,0.96592583,0,0)"
         y="-118.09024"
         x="222.73969"
         height="1205.3573"
         width="5"
         id="rect3919"
         style="opacity:0.2;fill:#393939;fill-opacity:1;fill-rule:nonzero;stroke:none" />
      <rect
         transform="matrix(1,0,-0.25881905,0.96592583,0,0)"
         style="opacity:0.2;fill:#393939;fill-opacity:1;fill-rule:nonzero;stroke:none"
         id="rect3921"
         width="5"
         height="1205.3573"
         x="180.40036"
         y="-118.09024" />
      <rect
         transform="matrix(1,0,-0.25881905,0.96592583,0,0)"
         y="-118.09024"
         x="138.06102"
         height="1205.3573"
         width="5"
         id="rect3923"
         style="opacity:0.2;fill:#393939;fill-opacity:1;fill-rule:nonzero;stroke:none" />
      <rect
         transform="matrix(1,0,-0.25881905,0.96592583,0,0)"
         style="opacity:0.2;fill:#393939;fill-opacity:1;fill-rule:nonzero;stroke:none"
         id="rect3925"
         width="5"
         height="1205.3573"
         x="95.72168"
         y="-118.09024" />
      <rect
         transform="matrix(1,0,-0.25881905,0.96592583,0,0)"
         y="-118.09024"
         x="53.382351"
         height="1205.3573"
         width="5"
         id="rect3927"
         style="opacity:0.2;fill:#393939;fill-opacity:1;fill-rule:nonzero;stroke:none" />
      <rect
         transform="matrix(1,0,-0.25881905,0.96592583,0,0)"
         style="opacity:0.2;fill:#393939;fill-opacity:1;fill-rule:nonzero;stroke:none"
         id="rect3929"
         width="5"
         height="1205.3573"
         x="646.13306"
         y="-118.09024" />
      <rect
         transform="matrix(1,0,-0.25881905,0.96592583,0,0)"
         y="-118.09024"
         x="1768.1254"
         height="1205.3573"
         width="5"
         id="rect3931"
         style="opacity:0.2;fill:#393939;fill-opacity:1;fill-rule:nonzero;stroke:none" />
      <rect
         transform="matrix(1,0,-0.25881905,0.96592583,0,0)"
         style="opacity:0.2;fill:#393939;fill-opacity:1;fill-rule:nonzero;stroke:none"
         id="rect3933"
         width="5"
         height="1205.3573"
         x="1746.9557"
         y="-118.09024" />
      <rect
         transform="matrix(1,0,-0.25881905,0.96592583,0,0)"
         y="-118.09024"
         x="1725.7861"
         height="1205.3573"
         width="5"
         id="rect3935"
         style="opacity:0.2;fill:#393939;fill-opacity:1;fill-rule:nonzero;stroke:none" />
      <rect
         transform="matrix(1,0,-0.25881905,0.96592583,0,0)"
         style="opacity:0.2;fill:#393939;fill-opacity:1;fill-rule:nonzero;stroke:none"
         id="rect3937"
         width="5"
         height="1205.3573"
         x="1704.6165"
         y="-118.09024" />
      <rect
         transform="matrix(1,0,-0.25881905,0.96592583,0,0)"
         y="-118.09024"
         x="1683.4468"
         height="1205.3573"
         width="5"
         id="rect3939"
         style="opacity:0.2;fill:#393939;fill-opacity:1;fill-rule:nonzero;stroke:none" />
      <rect
         transform="matrix(1,0,-0.25881905,0.96592583,0,0)"
         style="opacity:0.2;fill:#393939;fill-opacity:1;fill-rule:nonzero;stroke:none"
         id="rect3941"
         width="5"
         height="1205.3573"
         x="1662.2771"
         y="-118.09024" />
      <rect
         transform="matrix(1,0,-0.25881905,0.96592583,0,0)"
         y="-118.09024"
         x="1641.1074"
         height="1205.3573"
         width="5"
         id="rect3943"
         style="opacity:0.2;fill:#393939;fill-opacity:1;fill-rule:nonzero;stroke:none" />
      <rect
         transform="matrix(1,0,-0.25881905,0.96592583,0,0)"
         style="opacity:0.2;fill:#393939;fill-opacity:1;fill-rule:nonzero;stroke:none"
         id="rect3945"
         width="5"
         height="1205.3573"
         x="1619.9377"
         y="-118.09024" />
      <rect
         transform="matrix(1,0,-0.25881905,0.96592583,0,0)"
         y="-118.09024"
         x="1598.7681"
         height="1205.3573"
         width="5"
         id="rect3947"
         style="opacity:0.2;fill:#393939;fill-opacity:1;fill-rule:nonzero;stroke:none" />
      <rect
         transform="matrix(1,0,-0.25881905,0.96592583,0,0)"
         style="opacity:0.2;fill:#393939;fill-opacity:1;fill-rule:nonzero;stroke:none"
         id="rect3949"
         width="5"
         height="1205.3573"
         x="1577.5984"
         y="-118.09024" />
      <rect
         transform="matrix(1,0,-0.25881905,0.96592583,0,0)"
         y="-118.09024"
         x="1556.4287"
         height="1205.3573"
         width="5"
         id="rect3951"
         style="opacity:0.2;fill:#393939;fill-opacity:1;fill-rule:nonzero;stroke:none" />
      <rect
         transform="matrix(1,0,-0.25881905,0.96592583,0,0)"
         style="opacity:0.2;fill:#393939;fill-opacity:1;fill-rule:nonzero;stroke:none"
         id="rect3953"
         width="5"
         height="1205.3573"
         x="1535.259"
         y="-118.09024" />
      <rect
         transform="matrix(1,0,-0.25881905,0.96592583,0,0)"
         y="-118.09024"
         x="1514.0894"
         height="1205.3573"
         width="5"
         id="rect3955"
         style="opacity:0.2;fill:#393939;fill-opacity:1;fill-rule:nonzero;stroke:none" />
      <rect
         transform="matrix(1,0,-0.25881905,0.96592583,0,0)"
         style="opacity:0.2;fill:#393939;fill-opacity:1;fill-rule:nonzero;stroke:none"
         id="rect3957"
         width="5"
         height="1205.3573"
         x="1175.3748"
         y="-118.09024" />
      <rect
         transform="matrix(1,0,-0.25881905,0.96592583,0,0)"
         y="-118.09024"
         x="1471.75"
         height="1205.3573"
         width="5"
         id="rect3959"
         style="opacity:0.2;fill:#393939;fill-opacity:1;fill-rule:nonzero;stroke:none" />
      <rect
         transform="matrix(1,0,-0.25881905,0.96592583,0,0)"
         style="opacity:0.2;fill:#393939;fill-opacity:1;fill-rule:nonzero;stroke:none"
         id="rect3961"
         width="5"
         height="1205.3573"
         x="1450.5804"
         y="-118.09024" />
      <rect
         transform="matrix(1,0,-0.25881905,0.96592583,0,0)"
         y="-118.09024"
         x="1429.4108"
         height="1205.3573"
         width="5"
         id="rect3963"
         style="opacity:0.2;fill:#393939;fill-opacity:1;fill-rule:nonzero;stroke:none" />
      <rect
         transform="matrix(1,0,-0.25881905,0.96592583,0,0)"
         style="opacity:0.2;fill:#393939;fill-opacity:1;fill-rule:nonzero;stroke:none"
         id="rect3965"
         width="5"
         height="1205.3573"
         x="1408.2411"
         y="-118.09024" />
      <rect
         transform="matrix(1,0,-0.25881905,0.96592583,0,0)"
         y="-118.09024"
         x="1387.0715"
         height="1205.3573"
         width="5"
         id="rect3967"
         style="opacity:0.2;fill:#393939;fill-opacity:1;fill-rule:nonzero;stroke:none" />
      <rect
         transform="matrix(1,0,-0.25881905,0.96592583,0,0)"
         style="opacity:0.2;fill:#393939;fill-opacity:1;fill-rule:nonzero;stroke:none"
         id="rect3969"
         width="5"
         height="1205.3573"
         x="1365.9017"
         y="-118.09024" />
      <rect
         transform="matrix(1,0,-0.25881905,0.96592583,0,0)"
         y="-118.09024"
         x="1344.7321"
         height="1205.3573"
         width="5"
         id="rect3971"
         style="opacity:0.2;fill:#393939;fill-opacity:1;fill-rule:nonzero;stroke:none" />
      <rect
         transform="matrix(1,0,-0.25881905,0.96592583,0,0)"
         style="opacity:0.2;fill:#393939;fill-opacity:1;fill-rule:nonzero;stroke:none"
         id="rect3973"
         width="5"
         height="1205.3573"
         x="1323.5624"
         y="-118.09024" />
      <rect
         transform="matrix(1,0,-0.25881905,0.96592583,0,0)"
         y="-118.09024"
         x="1302.3927"
         height="1205.3573"
         width="5"
         id="rect3975"
         style="opacity:0.2;fill:#393939;fill-opacity:1;fill-rule:nonzero;stroke:none" />
      <rect
         transform="matrix(1,0,-0.25881905,0.96592583,0,0)"
         style="opacity:0.2;fill:#393939;fill-opacity:1;fill-rule:nonzero;stroke:none"
         id="rect3977"
         width="5"
         height="1205.3573"
         x="1281.223"
         y="-118.09024" />
      <rect
         transform="matrix(1,0,-0.25881905,0.96592583,0,0)"
         y="-118.09024"
         x="1260.0533"
         height="1205.3573"
         width="5"
         id="rect3979"
         style="opacity:0.2;fill:#393939;fill-opacity:1;fill-rule:nonzero;stroke:none" />
      <rect
         transform="matrix(1,0,-0.25881905,0.96592583,0,0)"
         style="opacity:0.2;fill:#393939;fill-opacity:1;fill-rule:nonzero;stroke:none"
         id="rect3981"
         width="5"
         height="1205.3573"
         x="1238.8838"
         y="-118.09024" />
      <rect
         transform="matrix(1,0,-0.25881905,0.96592583,0,0)"
         y="-118.09024"
         x="1217.7141"
         height="1205.3573"
         width="5"
         id="rect3983"
         style="opacity:0.2;fill:#393939;fill-opacity:1;fill-rule:nonzero;stroke:none" />
      <rect
         transform="matrix(1,0,-0.25881905,0.96592583,0,0)"
         style="opacity:0.2;fill:#393939;fill-opacity:1;fill-rule:nonzero;stroke:none"
         id="rect3985"
         width="5"
         height="1205.3573"
         x="1196.5444"
         y="-118.09024" />
      <rect
         transform="matrix(1,0,-0.25881905,0.96592583,0,0)"
         style="opacity:0.2;fill:#393939;fill-opacity:1;fill-rule:nonzero;stroke:none"
         id="rect4009"
         width="5"
         height="1205.3573"
         x="1979.8221"
         y="-118.09024" />
      <rect
         transform="matrix(1,0,-0.25881905,0.96592583,0,0)"
         y="-118.09024"
         x="1958.6525"
         height="1205.3573"
         width="5"
         id="rect4011"
         style="opacity:0.2;fill:#393939;fill-opacity:1;fill-rule:nonzero;stroke:none" />
      <rect
         transform="matrix(1,0,-0.25881905,0.96592583,0,0)"
         style="opacity:0.2;fill:#393939;fill-opacity:1;fill-rule:nonzero;stroke:none"
         id="rect4013"
         width="5"
         height="1205.3573"
         x="1937.4828"
         y="-118.09024" />
      <rect
         transform="matrix(1,0,-0.25881905,0.96592583,0,0)"
         style="opacity:0.2;fill:#393939;fill-opacity:1;fill-rule:nonzero;stroke:none"
         id="rect4017"
         width="5"
         height="1205.3573"
         x="1895.1434"
         y="-118.09024" />
      <rect
         transform="matrix(1,0,-0.25881905,0.96592583,0,0)"
         y="-118.09024"
         x="1873.9738"
         height="1205.3573"
         width="5"
         id="rect4019"
         style="opacity:0.2;fill:#393939;fill-opacity:1;fill-rule:nonzero;stroke:none" />
      <rect
         transform="matrix(1,0,-0.25881905,0.96592583,0,0)"
         style="opacity:0.2;fill:#393939;fill-opacity:1;fill-rule:nonzero;stroke:none"
         id="rect4021"
         width="5"
         height="1205.3573"
         x="1852.8041"
         y="-118.09024" />
      <rect
         transform="matrix(1,0,-0.25881905,0.96592583,0,0)"
         style="opacity:0.2;fill:#393939;fill-opacity:1;fill-rule:nonzero;stroke:none"
         id="rect4045"
         width="5"
         height="1205.3573"
         x="1916.3131"
         y="-118.09024" />
      <rect
         transform="matrix(1,0,-0.25881905,0.96592583,0,0)"
         y="-118.09024"
         x="-31.296345"
         height="1205.3573"
         width="5"
         id="rect4047"
         style="opacity:0.2;fill:#393939;fill-opacity:1;fill-rule:nonzero;stroke:none" />
      <rect
         transform="matrix(1,0,-0.25881905,0.96592583,0,0)"
         style="opacity:0.2;fill:#393939;fill-opacity:1;fill-rule:nonzero;stroke:none"
         id="rect4049"
         width="5"
         height="1205.3573"
         x="2318.5369"
         y="-118.09024" />
      <rect
         transform="matrix(1,0,-0.25881905,0.96592583,0,0)"
         y="-118.09024"
         x="2297.3672"
         height="1205.3573"
         width="5"
         id="rect4051"
         style="opacity:0.2;fill:#393939;fill-opacity:1;fill-rule:nonzero;stroke:none" />
      <rect
         transform="matrix(1,0,-0.25881905,0.96592583,0,0)"
         style="opacity:0.2;fill:#393939;fill-opacity:1;fill-rule:nonzero;stroke:none"
         id="rect4053"
         width="5"
         height="1205.3573"
         x="2276.1975"
         y="-118.09024" />
      <rect
         transform="matrix(1,0,-0.25881905,0.96592583,0,0)"
         y="-118.09024"
         x="2255.0278"
         height="1205.3573"
         width="5"
         id="rect4055"
         style="opacity:0.2;fill:#393939;fill-opacity:1;fill-rule:nonzero;stroke:none" />
      <rect
         transform="matrix(1,0,-0.25881905,0.96592583,0,0)"
         style="opacity:0.2;fill:#393939;fill-opacity:1;fill-rule:nonzero;stroke:none"
         id="rect4057"
         width="5"
         height="1205.3573"
         x="2233.8582"
         y="-118.09024" />
      <rect
         transform="matrix(1,0,-0.25881905,0.96592583,0,0)"
         y="-118.09024"
         x="2212.6885"
         height="1205.3573"
         width="5"
         id="rect4059"
         style="opacity:0.2;fill:#393939;fill-opacity:1;fill-rule:nonzero;stroke:none" />
      <rect
         transform="matrix(1,0,-0.25881905,0.96592583,0,0)"
         style="opacity:0.2;fill:#393939;fill-opacity:1;fill-rule:nonzero;stroke:none"
         id="rect4061"
         width="5"
         height="1205.3573"
         x="2191.5188"
         y="-118.09024" />
      <rect
         transform="matrix(1,0,-0.25881905,0.96592583,0,0)"
         y="-118.09024"
         x="2170.3491"
         height="1205.3573"
         width="5"
         id="rect4063"
         style="opacity:0.2;fill:#393939;fill-opacity:1;fill-rule:nonzero;stroke:none" />
      <rect
         transform="matrix(1,0,-0.25881905,0.96592583,0,0)"
         style="opacity:0.2;fill:#393939;fill-opacity:1;fill-rule:nonzero;stroke:none"
         id="rect4065"
         width="5"
         height="1205.3573"
         x="2149.1794"
         y="-118.09024" />
      <rect
         transform="matrix(1,0,-0.25881905,0.96592583,0,0)"
         y="-118.09024"
         x="2128.0098"
         height="1205.3573"
         width="5"
         id="rect4067"
         style="opacity:0.2;fill:#393939;fill-opacity:1;fill-rule:nonzero;stroke:none" />
      <rect
         transform="matrix(1,0,-0.25881905,0.96592583,0,0)"
         style="opacity:0.2;fill:#393939;fill-opacity:1;fill-rule:nonzero;stroke:none"
         id="rect4069"
         width="5"
         height="1205.3573"
         x="2106.8401"
         y="-118.09024" />
      <rect
         transform="matrix(1,0,-0.25881905,0.96592583,0,0)"
         y="-118.09024"
         x="2085.6704"
         height="1205.3573"
         width="5"
         id="rect4071"
         style="opacity:0.2;fill:#393939;fill-opacity:1;fill-rule:nonzero;stroke:none" />
      <rect
         transform="matrix(1,0,-0.25881905,0.96592583,0,0)"
         style="opacity:0.2;fill:#393939;fill-opacity:1;fill-rule:nonzero;stroke:none"
         id="rect4073"
         width="5"
         height="1205.3573"
         x="2064.5007"
         y="-118.09024" />
      <rect
         transform="matrix(1,0,-0.25881905,0.96592583,0,0)"
         style="opacity:0.2;fill:#393939;fill-opacity:1;fill-rule:nonzero;stroke:none"
         id="rect4077"
         width="5"
         height="1205.3573"
         x="2022.1614"
         y="-118.09024" />
      <rect
         transform="matrix(1,0,-0.25881905,0.96592583,0,0)"
         y="-118.09024"
         x="2000.9917"
         height="1205.3573"
         width="5"
         id="rect4079"
         style="opacity:0.2;fill:#393939;fill-opacity:1;fill-rule:nonzero;stroke:none" />
      <rect
         transform="matrix(1,0,-0.25881905,0.96592583,0,0)"
         y="-118.09024"
         x="2043.3311"
         height="1205.3573"
         width="5"
         id="rect4103"
         style="opacity:0.2;fill:#393939;fill-opacity:1;fill-rule:nonzero;stroke:none" />
      <rect
         transform="matrix(1,0,-0.25881905,0.96592583,0,0)"
         y="-118.09024"
         x="1048.3568"
         height="1205.3573"
         width="5"
         id="rect3879-1"
         style="opacity:0.2;fill:#393939;fill-opacity:1;fill-rule:nonzero;stroke:none" />
      <rect
         transform="matrix(1,0,-0.25881905,0.96592583,0,0)"
         style="opacity:0.2;fill:#393939;fill-opacity:1;fill-rule:nonzero;stroke:none"
         id="rect3881-7"
         width="5"
         height="1205.3573"
         x="1006.0174"
         y="-118.09024" />
      <rect
         transform="matrix(1,0,-0.25881905,0.96592583,0,0)"
         y="-118.09024"
         x="963.6781"
         height="1205.3573"
         width="5"
         id="rect3883-4"
         style="opacity:0.2;fill:#393939;fill-opacity:1;fill-rule:nonzero;stroke:none" />
      <rect
         transform="matrix(1,0,-0.25881905,0.96592583,0,0)"
         style="opacity:0.2;fill:#393939;fill-opacity:1;fill-rule:nonzero;stroke:none"
         id="rect3885-0"
         width="5"
         height="1205.3573"
         x="921.33875"
         y="-118.09024" />
      <rect
         transform="matrix(1,0,-0.25881905,0.96592583,0,0)"
         y="-118.09024"
         x="878.99939"
         height="1205.3573"
         width="5"
         id="rect3887-9"
         style="opacity:0.2;fill:#393939;fill-opacity:1;fill-rule:nonzero;stroke:none" />
      <rect
         transform="matrix(1,0,-0.25881905,0.96592583,0,0)"
         style="opacity:0.2;fill:#393939;fill-opacity:1;fill-rule:nonzero;stroke:none"
         id="rect3889-4"
         width="5"
         height="1205.3573"
         x="836.66003"
         y="-118.09024" />
      <rect
         transform="matrix(1,0,-0.25881905,0.96592583,0,0)"
         y="-118.09024"
         x="794.32074"
         height="1205.3573"
         width="5"
         id="rect3891-8"
         style="opacity:0.2;fill:#393939;fill-opacity:1;fill-rule:nonzero;stroke:none" />
      <rect
         transform="matrix(1,0,-0.25881905,0.96592583,0,0)"
         style="opacity:0.2;fill:#393939;fill-opacity:1;fill-rule:nonzero;stroke:none"
         id="rect3893-8"
         width="5"
         height="1205.3573"
         x="751.98138"
         y="-118.09024" />
      <rect
         transform="matrix(1,0,-0.25881905,0.96592583,0,0)"
         y="-118.09024"
         x="709.64203"
         height="1205.3573"
         width="5"
         id="rect3895-2"
         style="opacity:0.2;fill:#393939;fill-opacity:1;fill-rule:nonzero;stroke:none" />
      <rect
         transform="matrix(1,0,-0.25881905,0.96592583,0,0)"
         style="opacity:0.2;fill:#393939;fill-opacity:1;fill-rule:nonzero;stroke:none"
         id="rect3897-4"
         width="5"
         height="1205.3573"
         x="667.30273"
         y="-118.09024" />
      <rect
         transform="matrix(1,0,-0.25881905,0.96592583,0,0)"
         y="-118.09024"
         x="-10.126667"
         height="1205.3573"
         width="5"
         id="rect3899-5"
         style="opacity:0.2;fill:#393939;fill-opacity:1;fill-rule:nonzero;stroke:none" />
      <rect
         transform="matrix(1,0,-0.25881905,0.96592583,0,0)"
         style="opacity:0.2;fill:#393939;fill-opacity:1;fill-rule:nonzero;stroke:none"
         id="rect3901-5"
         width="5"
         height="1205.3573"
         x="582.62402"
         y="-118.09024" />
      <rect
         transform="matrix(1,0,-0.25881905,0.96592583,0,0)"
         y="-118.09024"
         x="540.28473"
         height="1205.3573"
         width="5"
         id="rect3903-1"
         style="opacity:0.2;fill:#393939;fill-opacity:1;fill-rule:nonzero;stroke:none" />
      <rect
         transform="matrix(1,0,-0.25881905,0.96592583,0,0)"
         style="opacity:0.2;fill:#393939;fill-opacity:1;fill-rule:nonzero;stroke:none"
         id="rect3905-7"
         width="5"
         height="1205.3573"
         x="497.94537"
         y="-118.09024" />
      <rect
         transform="matrix(1,0,-0.25881905,0.96592583,0,0)"
         y="-118.09024"
         x="455.60602"
         height="1205.3573"
         width="5"
         id="rect3907-1"
         style="opacity:0.2;fill:#393939;fill-opacity:1;fill-rule:nonzero;stroke:none" />
      <rect
         transform="matrix(1,0,-0.25881905,0.96592583,0,0)"
         style="opacity:0.2;fill:#393939;fill-opacity:1;fill-rule:nonzero;stroke:none"
         id="rect3909-1"
         width="5"
         height="1205.3573"
         x="413.26669"
         y="-118.09024" />
      <rect
         transform="matrix(1,0,-0.25881905,0.96592583,0,0)"
         y="-118.09024"
         x="370.92737"
         height="1205.3573"
         width="5"
         id="rect3911-5"
         style="opacity:0.2;fill:#393939;fill-opacity:1;fill-rule:nonzero;stroke:none" />
      <rect
         transform="matrix(1,0,-0.25881905,0.96592583,0,0)"
         style="opacity:0.2;fill:#393939;fill-opacity:1;fill-rule:nonzero;stroke:none"
         id="rect3913-2"
         width="5"
         height="1205.3573"
         x="328.58804"
         y="-118.09024" />
      <rect
         transform="matrix(1,0,-0.25881905,0.96592583,0,0)"
         y="-118.09024"
         x="286.24869"
         height="1205.3573"
         width="5"
         id="rect3915-7"
         style="opacity:0.2;fill:#393939;fill-opacity:1;fill-rule:nonzero;stroke:none" />
      <rect
         transform="matrix(1,0,-0.25881905,0.96592583,0,0)"
         style="opacity:0.2;fill:#393939;fill-opacity:1;fill-rule:nonzero;stroke:none"
         id="rect3917-6"
         width="5"
         height="1205.3573"
         x="243.90936"
         y="-118.09024" />
      <rect
         transform="matrix(1,0,-0.25881905,0.96592583,0,0)"
         y="-118.09024"
         x="201.57002"
         height="1205.3573"
         width="5"
         id="rect3919-1"
         style="opacity:0.2;fill:#393939;fill-opacity:1;fill-rule:nonzero;stroke:none" />
      <rect
         transform="matrix(1,0,-0.25881905,0.96592583,0,0)"
         style="opacity:0.2;fill:#393939;fill-opacity:1;fill-rule:nonzero;stroke:none"
         id="rect3921-4"
         width="5"
         height="1205.3573"
         x="159.23068"
         y="-118.09024" />
      <rect
         transform="matrix(1,0,-0.25881905,0.96592583,0,0)"
         y="-118.09024"
         x="116.89136"
         height="1205.3573"
         width="5"
         id="rect3923-2"
         style="opacity:0.2;fill:#393939;fill-opacity:1;fill-rule:nonzero;stroke:none" />
      <rect
         transform="matrix(1,0,-0.25881905,0.96592583,0,0)"
         style="opacity:0.2;fill:#393939;fill-opacity:1;fill-rule:nonzero;stroke:none"
         id="rect3925-3"
         width="5"
         height="1205.3573"
         x="74.552002"
         y="-118.09024" />
      <rect
         transform="matrix(1,0,-0.25881905,0.96592583,0,0)"
         y="-118.09024"
         x="32.212673"
         height="1205.3573"
         width="5"
         id="rect3927-2"
         style="opacity:0.2;fill:#393939;fill-opacity:1;fill-rule:nonzero;stroke:none" />
      <rect
         transform="matrix(1,0,-0.25881905,0.96592583,0,0)"
         style="opacity:0.2;fill:#393939;fill-opacity:1;fill-rule:nonzero;stroke:none"
         id="rect3929-2"
         width="5"
         height="1205.3573"
         x="624.96338"
         y="-118.09024" />
    </g>
  </g>
</svg>
